%TF.GenerationSoftware,KiCad,Pcbnew,(6.0.4)*%
%TF.CreationDate,2022-07-31T01:39:18+05:30*%
%TF.ProjectId,DC-POWER-SUPPLY,44432d50-4f57-4455-922d-535550504c59,rev?*%
%TF.SameCoordinates,Original*%
%TF.FileFunction,Legend,Bot*%
%TF.FilePolarity,Positive*%
%FSLAX46Y46*%
G04 Gerber Fmt 4.6, Leading zero omitted, Abs format (unit mm)*
G04 Created by KiCad (PCBNEW (6.0.4)) date 2022-07-31 01:39:18*
%MOMM*%
%LPD*%
G01*
G04 APERTURE LIST*
%ADD10C,0.750000*%
G04 APERTURE END LIST*
D10*
X190384285Y-50792000D02*
X188122380Y-50792000D01*
X190836666Y-51649142D02*
X189253333Y-48649142D01*
X187670000Y-51649142D01*
X184503333Y-50077714D02*
X183824761Y-50220571D01*
X183598571Y-50363428D01*
X183372380Y-50649142D01*
X183372380Y-51077714D01*
X183598571Y-51363428D01*
X183824761Y-51506285D01*
X184277142Y-51649142D01*
X186086666Y-51649142D01*
X186086666Y-48649142D01*
X184503333Y-48649142D01*
X184050952Y-48792000D01*
X183824761Y-48934857D01*
X183598571Y-49220571D01*
X183598571Y-49506285D01*
X183824761Y-49792000D01*
X184050952Y-49934857D01*
X184503333Y-50077714D01*
X186086666Y-50077714D01*
X181336666Y-51649142D02*
X181336666Y-48649142D01*
X176812857Y-51649142D02*
X179074761Y-51649142D01*
X179074761Y-48649142D01*
X175229523Y-50077714D02*
X173646190Y-50077714D01*
X172967619Y-51649142D02*
X175229523Y-51649142D01*
X175229523Y-48649142D01*
X172967619Y-48649142D01*
X171158095Y-51506285D02*
X170479523Y-51649142D01*
X169348571Y-51649142D01*
X168896190Y-51506285D01*
X168670000Y-51363428D01*
X168443809Y-51077714D01*
X168443809Y-50792000D01*
X168670000Y-50506285D01*
X168896190Y-50363428D01*
X169348571Y-50220571D01*
X170253333Y-50077714D01*
X170705714Y-49934857D01*
X170931904Y-49792000D01*
X171158095Y-49506285D01*
X171158095Y-49220571D01*
X170931904Y-48934857D01*
X170705714Y-48792000D01*
X170253333Y-48649142D01*
X169122380Y-48649142D01*
X168443809Y-48792000D01*
X166408095Y-51649142D02*
X166408095Y-48649142D01*
X166408095Y-50077714D02*
X163693809Y-50077714D01*
X163693809Y-51649142D02*
X163693809Y-48649142D01*
X161205714Y-48649142D02*
X161658095Y-49220571D01*
X159396190Y-51506285D02*
X158717619Y-51649142D01*
X157586666Y-51649142D01*
X157134285Y-51506285D01*
X156908095Y-51363428D01*
X156681904Y-51077714D01*
X156681904Y-50792000D01*
X156908095Y-50506285D01*
X157134285Y-50363428D01*
X157586666Y-50220571D01*
X158491428Y-50077714D01*
X158943809Y-49934857D01*
X159170000Y-49792000D01*
X159396190Y-49506285D01*
X159396190Y-49220571D01*
X159170000Y-48934857D01*
X158943809Y-48792000D01*
X158491428Y-48649142D01*
X157360476Y-48649142D01*
X156681904Y-48792000D01*
X151027142Y-51649142D02*
X151027142Y-48649142D01*
X149896190Y-48649142D01*
X149217619Y-48792000D01*
X148765238Y-49077714D01*
X148539047Y-49363428D01*
X148312857Y-49934857D01*
X148312857Y-50363428D01*
X148539047Y-50934857D01*
X148765238Y-51220571D01*
X149217619Y-51506285D01*
X149896190Y-51649142D01*
X151027142Y-51649142D01*
X143562857Y-51363428D02*
X143789047Y-51506285D01*
X144467619Y-51649142D01*
X144920000Y-51649142D01*
X145598571Y-51506285D01*
X146050952Y-51220571D01*
X146277142Y-50934857D01*
X146503333Y-50363428D01*
X146503333Y-49934857D01*
X146277142Y-49363428D01*
X146050952Y-49077714D01*
X145598571Y-48792000D01*
X144920000Y-48649142D01*
X144467619Y-48649142D01*
X143789047Y-48792000D01*
X143562857Y-48934857D01*
X137908095Y-51649142D02*
X137908095Y-48649142D01*
X136098571Y-48649142D01*
X135646190Y-48792000D01*
X135420000Y-48934857D01*
X135193809Y-49220571D01*
X135193809Y-49649142D01*
X135420000Y-49934857D01*
X135646190Y-50077714D01*
X136098571Y-50220571D01*
X137908095Y-50220571D01*
X132253333Y-48649142D02*
X131348571Y-48649142D01*
X130896190Y-48792000D01*
X130443809Y-49077714D01*
X130217619Y-49649142D01*
X130217619Y-50649142D01*
X130443809Y-51220571D01*
X130896190Y-51506285D01*
X131348571Y-51649142D01*
X132253333Y-51649142D01*
X132705714Y-51506285D01*
X133158095Y-51220571D01*
X133384285Y-50649142D01*
X133384285Y-49649142D01*
X133158095Y-49077714D01*
X132705714Y-48792000D01*
X132253333Y-48649142D01*
X128634285Y-48649142D02*
X127503333Y-51649142D01*
X126598571Y-49506285D01*
X125693809Y-51649142D01*
X124562857Y-48649142D01*
X122753333Y-50077714D02*
X121170000Y-50077714D01*
X120491428Y-51649142D02*
X122753333Y-51649142D01*
X122753333Y-48649142D01*
X120491428Y-48649142D01*
X115741428Y-51649142D02*
X117324761Y-50220571D01*
X118455714Y-51649142D02*
X118455714Y-48649142D01*
X116646190Y-48649142D01*
X116193809Y-48792000D01*
X115967619Y-48934857D01*
X115741428Y-49220571D01*
X115741428Y-49649142D01*
X115967619Y-49934857D01*
X116193809Y-50077714D01*
X116646190Y-50220571D01*
X118455714Y-50220571D01*
X110312857Y-51506285D02*
X109634285Y-51649142D01*
X108503333Y-51649142D01*
X108050952Y-51506285D01*
X107824761Y-51363428D01*
X107598571Y-51077714D01*
X107598571Y-50792000D01*
X107824761Y-50506285D01*
X108050952Y-50363428D01*
X108503333Y-50220571D01*
X109408095Y-50077714D01*
X109860476Y-49934857D01*
X110086666Y-49792000D01*
X110312857Y-49506285D01*
X110312857Y-49220571D01*
X110086666Y-48934857D01*
X109860476Y-48792000D01*
X109408095Y-48649142D01*
X108277142Y-48649142D01*
X107598571Y-48792000D01*
X105562857Y-48649142D02*
X105562857Y-51077714D01*
X105336666Y-51363428D01*
X105110476Y-51506285D01*
X104658095Y-51649142D01*
X103753333Y-51649142D01*
X103300952Y-51506285D01*
X103074761Y-51363428D01*
X102848571Y-51077714D01*
X102848571Y-48649142D01*
X100586666Y-51649142D02*
X100586666Y-48649142D01*
X98777142Y-48649142D01*
X98324761Y-48792000D01*
X98098571Y-48934857D01*
X97872380Y-49220571D01*
X97872380Y-49649142D01*
X98098571Y-49934857D01*
X98324761Y-50077714D01*
X98777142Y-50220571D01*
X100586666Y-50220571D01*
X95836666Y-51649142D02*
X95836666Y-48649142D01*
X94027142Y-48649142D01*
X93574761Y-48792000D01*
X93348571Y-48934857D01*
X93122380Y-49220571D01*
X93122380Y-49649142D01*
X93348571Y-49934857D01*
X93574761Y-50077714D01*
X94027142Y-50220571D01*
X95836666Y-50220571D01*
X88824761Y-51649142D02*
X91086666Y-51649142D01*
X91086666Y-48649142D01*
X86336666Y-50220571D02*
X86336666Y-51649142D01*
X87920000Y-48649142D02*
X86336666Y-50220571D01*
X84753333Y-48649142D01*
M02*
