%TF.GenerationSoftware,KiCad,Pcbnew,(6.0.4)*%
%TF.CreationDate,2022-07-31T01:39:18+05:30*%
%TF.ProjectId,DC-POWER-SUPPLY,44432d50-4f57-4455-922d-535550504c59,rev?*%
%TF.SameCoordinates,Original*%
%TF.FileFunction,Legend,Top*%
%TF.FilePolarity,Positive*%
%FSLAX46Y46*%
G04 Gerber Fmt 4.6, Leading zero omitted, Abs format (unit mm)*
G04 Created by KiCad (PCBNEW (6.0.4)) date 2022-07-31 01:39:18*
%MOMM*%
%LPD*%
G01*
G04 APERTURE LIST*
%ADD10C,0.150000*%
%ADD11C,0.250000*%
%ADD12C,0.120000*%
G04 APERTURE END LIST*
D10*
X152273000Y-31496000D02*
X152273000Y-28956000D01*
X126873000Y-31496000D02*
X152273000Y-31496000D01*
X126873000Y-28956000D02*
X126873000Y-31496000D01*
X152273000Y-28956000D02*
X126873000Y-28956000D01*
D11*
X128120619Y-30519666D02*
X128596809Y-30519666D01*
X128025380Y-30805380D02*
X128358714Y-29805380D01*
X128692047Y-30805380D01*
X129358714Y-30281571D02*
X129501571Y-30329190D01*
X129549190Y-30376809D01*
X129596809Y-30472047D01*
X129596809Y-30614904D01*
X129549190Y-30710142D01*
X129501571Y-30757761D01*
X129406333Y-30805380D01*
X129025380Y-30805380D01*
X129025380Y-29805380D01*
X129358714Y-29805380D01*
X129453952Y-29853000D01*
X129501571Y-29900619D01*
X129549190Y-29995857D01*
X129549190Y-30091095D01*
X129501571Y-30186333D01*
X129453952Y-30233952D01*
X129358714Y-30281571D01*
X129025380Y-30281571D01*
X130025380Y-30805380D02*
X130025380Y-29805380D01*
X130977761Y-30805380D02*
X130501571Y-30805380D01*
X130501571Y-29805380D01*
X131311095Y-30281571D02*
X131644428Y-30281571D01*
X131787285Y-30805380D02*
X131311095Y-30805380D01*
X131311095Y-29805380D01*
X131787285Y-29805380D01*
X132168238Y-30757761D02*
X132311095Y-30805380D01*
X132549190Y-30805380D01*
X132644428Y-30757761D01*
X132692047Y-30710142D01*
X132739666Y-30614904D01*
X132739666Y-30519666D01*
X132692047Y-30424428D01*
X132644428Y-30376809D01*
X132549190Y-30329190D01*
X132358714Y-30281571D01*
X132263476Y-30233952D01*
X132215857Y-30186333D01*
X132168238Y-30091095D01*
X132168238Y-29995857D01*
X132215857Y-29900619D01*
X132263476Y-29853000D01*
X132358714Y-29805380D01*
X132596809Y-29805380D01*
X132739666Y-29853000D01*
X133168238Y-30805380D02*
X133168238Y-29805380D01*
X133168238Y-30281571D02*
X133739666Y-30281571D01*
X133739666Y-30805380D02*
X133739666Y-29805380D01*
X134263476Y-29805380D02*
X134168238Y-29995857D01*
X134644428Y-30757761D02*
X134787285Y-30805380D01*
X135025380Y-30805380D01*
X135120619Y-30757761D01*
X135168238Y-30710142D01*
X135215857Y-30614904D01*
X135215857Y-30519666D01*
X135168238Y-30424428D01*
X135120619Y-30376809D01*
X135025380Y-30329190D01*
X134834904Y-30281571D01*
X134739666Y-30233952D01*
X134692047Y-30186333D01*
X134644428Y-30091095D01*
X134644428Y-29995857D01*
X134692047Y-29900619D01*
X134739666Y-29853000D01*
X134834904Y-29805380D01*
X135073000Y-29805380D01*
X135215857Y-29853000D01*
X137168238Y-30805380D02*
X137168238Y-29805380D01*
X137406333Y-29805380D01*
X137549190Y-29853000D01*
X137644428Y-29948238D01*
X137692047Y-30043476D01*
X137739666Y-30233952D01*
X137739666Y-30376809D01*
X137692047Y-30567285D01*
X137644428Y-30662523D01*
X137549190Y-30757761D01*
X137406333Y-30805380D01*
X137168238Y-30805380D01*
X138739666Y-30710142D02*
X138692047Y-30757761D01*
X138549190Y-30805380D01*
X138453952Y-30805380D01*
X138311095Y-30757761D01*
X138215857Y-30662523D01*
X138168238Y-30567285D01*
X138120619Y-30376809D01*
X138120619Y-30233952D01*
X138168238Y-30043476D01*
X138215857Y-29948238D01*
X138311095Y-29853000D01*
X138453952Y-29805380D01*
X138549190Y-29805380D01*
X138692047Y-29853000D01*
X138739666Y-29900619D01*
X139930142Y-30805380D02*
X139930142Y-29805380D01*
X140311095Y-29805380D01*
X140406333Y-29853000D01*
X140453952Y-29900619D01*
X140501571Y-29995857D01*
X140501571Y-30138714D01*
X140453952Y-30233952D01*
X140406333Y-30281571D01*
X140311095Y-30329190D01*
X139930142Y-30329190D01*
X141120619Y-29805380D02*
X141311095Y-29805380D01*
X141406333Y-29853000D01*
X141501571Y-29948238D01*
X141549190Y-30138714D01*
X141549190Y-30472047D01*
X141501571Y-30662523D01*
X141406333Y-30757761D01*
X141311095Y-30805380D01*
X141120619Y-30805380D01*
X141025380Y-30757761D01*
X140930142Y-30662523D01*
X140882523Y-30472047D01*
X140882523Y-30138714D01*
X140930142Y-29948238D01*
X141025380Y-29853000D01*
X141120619Y-29805380D01*
X141882523Y-29805380D02*
X142120619Y-30805380D01*
X142311095Y-30091095D01*
X142501571Y-30805380D01*
X142739666Y-29805380D01*
X143120619Y-30281571D02*
X143453952Y-30281571D01*
X143596809Y-30805380D02*
X143120619Y-30805380D01*
X143120619Y-29805380D01*
X143596809Y-29805380D01*
X144596809Y-30805380D02*
X144263476Y-30329190D01*
X144025380Y-30805380D02*
X144025380Y-29805380D01*
X144406333Y-29805380D01*
X144501571Y-29853000D01*
X144549190Y-29900619D01*
X144596809Y-29995857D01*
X144596809Y-30138714D01*
X144549190Y-30233952D01*
X144501571Y-30281571D01*
X144406333Y-30329190D01*
X144025380Y-30329190D01*
X145739666Y-30757761D02*
X145882523Y-30805380D01*
X146120619Y-30805380D01*
X146215857Y-30757761D01*
X146263476Y-30710142D01*
X146311095Y-30614904D01*
X146311095Y-30519666D01*
X146263476Y-30424428D01*
X146215857Y-30376809D01*
X146120619Y-30329190D01*
X145930142Y-30281571D01*
X145834904Y-30233952D01*
X145787285Y-30186333D01*
X145739666Y-30091095D01*
X145739666Y-29995857D01*
X145787285Y-29900619D01*
X145834904Y-29853000D01*
X145930142Y-29805380D01*
X146168238Y-29805380D01*
X146311095Y-29853000D01*
X146739666Y-29805380D02*
X146739666Y-30614904D01*
X146787285Y-30710142D01*
X146834904Y-30757761D01*
X146930142Y-30805380D01*
X147120619Y-30805380D01*
X147215857Y-30757761D01*
X147263476Y-30710142D01*
X147311095Y-30614904D01*
X147311095Y-29805380D01*
X147787285Y-30805380D02*
X147787285Y-29805380D01*
X148168238Y-29805380D01*
X148263476Y-29853000D01*
X148311095Y-29900619D01*
X148358714Y-29995857D01*
X148358714Y-30138714D01*
X148311095Y-30233952D01*
X148263476Y-30281571D01*
X148168238Y-30329190D01*
X147787285Y-30329190D01*
X148787285Y-30805380D02*
X148787285Y-29805380D01*
X149168238Y-29805380D01*
X149263476Y-29853000D01*
X149311095Y-29900619D01*
X149358714Y-29995857D01*
X149358714Y-30138714D01*
X149311095Y-30233952D01*
X149263476Y-30281571D01*
X149168238Y-30329190D01*
X148787285Y-30329190D01*
X150263476Y-30805380D02*
X149787285Y-30805380D01*
X149787285Y-29805380D01*
X150787285Y-30329190D02*
X150787285Y-30805380D01*
X150453952Y-29805380D02*
X150787285Y-30329190D01*
X151120619Y-29805380D01*
X186896571Y-49109380D02*
X186420380Y-49109380D01*
X186372761Y-49585571D01*
X186420380Y-49537952D01*
X186515619Y-49490333D01*
X186753714Y-49490333D01*
X186848952Y-49537952D01*
X186896571Y-49585571D01*
X186944190Y-49680809D01*
X186944190Y-49918904D01*
X186896571Y-50014142D01*
X186848952Y-50061761D01*
X186753714Y-50109380D01*
X186515619Y-50109380D01*
X186420380Y-50061761D01*
X186372761Y-50014142D01*
X187229904Y-49109380D02*
X187563238Y-50109380D01*
X187896571Y-49109380D01*
X188991809Y-50109380D02*
X188991809Y-49109380D01*
X189229904Y-49109380D01*
X189372761Y-49157000D01*
X189468000Y-49252238D01*
X189515619Y-49347476D01*
X189563238Y-49537952D01*
X189563238Y-49680809D01*
X189515619Y-49871285D01*
X189468000Y-49966523D01*
X189372761Y-50061761D01*
X189229904Y-50109380D01*
X188991809Y-50109380D01*
X190563238Y-50014142D02*
X190515619Y-50061761D01*
X190372761Y-50109380D01*
X190277523Y-50109380D01*
X190134666Y-50061761D01*
X190039428Y-49966523D01*
X189991809Y-49871285D01*
X189944190Y-49680809D01*
X189944190Y-49537952D01*
X189991809Y-49347476D01*
X190039428Y-49252238D01*
X190134666Y-49157000D01*
X190277523Y-49109380D01*
X190372761Y-49109380D01*
X190515619Y-49157000D01*
X190563238Y-49204619D01*
X85669809Y-43870619D02*
X85717428Y-43823000D01*
X85812666Y-43775380D01*
X86050761Y-43775380D01*
X86146000Y-43823000D01*
X86193619Y-43870619D01*
X86241238Y-43965857D01*
X86241238Y-44061095D01*
X86193619Y-44203952D01*
X85622190Y-44775380D01*
X86241238Y-44775380D01*
X86574571Y-43775380D02*
X87193619Y-43775380D01*
X86860285Y-44156333D01*
X87003142Y-44156333D01*
X87098380Y-44203952D01*
X87146000Y-44251571D01*
X87193619Y-44346809D01*
X87193619Y-44584904D01*
X87146000Y-44680142D01*
X87098380Y-44727761D01*
X87003142Y-44775380D01*
X86717428Y-44775380D01*
X86622190Y-44727761D01*
X86574571Y-44680142D01*
X87812666Y-43775380D02*
X87907904Y-43775380D01*
X88003142Y-43823000D01*
X88050761Y-43870619D01*
X88098380Y-43965857D01*
X88146000Y-44156333D01*
X88146000Y-44394428D01*
X88098380Y-44584904D01*
X88050761Y-44680142D01*
X88003142Y-44727761D01*
X87907904Y-44775380D01*
X87812666Y-44775380D01*
X87717428Y-44727761D01*
X87669809Y-44680142D01*
X87622190Y-44584904D01*
X87574571Y-44394428D01*
X87574571Y-44156333D01*
X87622190Y-43965857D01*
X87669809Y-43870619D01*
X87717428Y-43823000D01*
X87812666Y-43775380D01*
X88431714Y-43775380D02*
X88765047Y-44775380D01*
X89098380Y-43775380D01*
X90146000Y-44489666D02*
X90622190Y-44489666D01*
X90050761Y-44775380D02*
X90384095Y-43775380D01*
X90717428Y-44775380D01*
X91622190Y-44680142D02*
X91574571Y-44727761D01*
X91431714Y-44775380D01*
X91336476Y-44775380D01*
X91193619Y-44727761D01*
X91098380Y-44632523D01*
X91050761Y-44537285D01*
X91003142Y-44346809D01*
X91003142Y-44203952D01*
X91050761Y-44013476D01*
X91098380Y-43918238D01*
X91193619Y-43823000D01*
X91336476Y-43775380D01*
X91431714Y-43775380D01*
X91574571Y-43823000D01*
X91622190Y-43870619D01*
D10*
%TO.C,C3*%
X163779142Y-53224666D02*
X163826761Y-53272285D01*
X163874380Y-53415142D01*
X163874380Y-53510380D01*
X163826761Y-53653238D01*
X163731523Y-53748476D01*
X163636285Y-53796095D01*
X163445809Y-53843714D01*
X163302952Y-53843714D01*
X163112476Y-53796095D01*
X163017238Y-53748476D01*
X162922000Y-53653238D01*
X162874380Y-53510380D01*
X162874380Y-53415142D01*
X162922000Y-53272285D01*
X162969619Y-53224666D01*
X162874380Y-52891333D02*
X162874380Y-52272285D01*
X163255333Y-52605619D01*
X163255333Y-52462761D01*
X163302952Y-52367523D01*
X163350571Y-52319904D01*
X163445809Y-52272285D01*
X163683904Y-52272285D01*
X163779142Y-52319904D01*
X163826761Y-52367523D01*
X163874380Y-52462761D01*
X163874380Y-52748476D01*
X163826761Y-52843714D01*
X163779142Y-52891333D01*
%TO.C,C2*%
X135204142Y-52335666D02*
X135251761Y-52383285D01*
X135299380Y-52526142D01*
X135299380Y-52621380D01*
X135251761Y-52764238D01*
X135156523Y-52859476D01*
X135061285Y-52907095D01*
X134870809Y-52954714D01*
X134727952Y-52954714D01*
X134537476Y-52907095D01*
X134442238Y-52859476D01*
X134347000Y-52764238D01*
X134299380Y-52621380D01*
X134299380Y-52526142D01*
X134347000Y-52383285D01*
X134394619Y-52335666D01*
X134394619Y-51954714D02*
X134347000Y-51907095D01*
X134299380Y-51811857D01*
X134299380Y-51573761D01*
X134347000Y-51478523D01*
X134394619Y-51430904D01*
X134489857Y-51383285D01*
X134585095Y-51383285D01*
X134727952Y-51430904D01*
X135299380Y-52002333D01*
X135299380Y-51383285D01*
%TO.C,C1*%
X148666142Y-52899666D02*
X148713761Y-52947285D01*
X148761380Y-53090142D01*
X148761380Y-53185380D01*
X148713761Y-53328238D01*
X148618523Y-53423476D01*
X148523285Y-53471095D01*
X148332809Y-53518714D01*
X148189952Y-53518714D01*
X147999476Y-53471095D01*
X147904238Y-53423476D01*
X147809000Y-53328238D01*
X147761380Y-53185380D01*
X147761380Y-53090142D01*
X147809000Y-52947285D01*
X147856619Y-52899666D01*
X148761380Y-51947285D02*
X148761380Y-52518714D01*
X148761380Y-52233000D02*
X147761380Y-52233000D01*
X147904238Y-52328238D01*
X147999476Y-52423476D01*
X148047095Y-52518714D01*
%TO.C,J2*%
X180133666Y-46779380D02*
X180133666Y-47493666D01*
X180086047Y-47636523D01*
X179990809Y-47731761D01*
X179847952Y-47779380D01*
X179752714Y-47779380D01*
X180562238Y-46874619D02*
X180609857Y-46827000D01*
X180705095Y-46779380D01*
X180943190Y-46779380D01*
X181038428Y-46827000D01*
X181086047Y-46874619D01*
X181133666Y-46969857D01*
X181133666Y-47065095D01*
X181086047Y-47207952D01*
X180514619Y-47779380D01*
X181133666Y-47779380D01*
%TO.C,J1*%
X87804666Y-47922380D02*
X87804666Y-48636666D01*
X87757047Y-48779523D01*
X87661809Y-48874761D01*
X87518952Y-48922380D01*
X87423714Y-48922380D01*
X88804666Y-48922380D02*
X88233238Y-48922380D01*
X88518952Y-48922380D02*
X88518952Y-47922380D01*
X88423714Y-48065238D01*
X88328476Y-48160476D01*
X88233238Y-48208095D01*
%TO.C,D4*%
X124737904Y-63133380D02*
X124737904Y-62133380D01*
X124976000Y-62133380D01*
X125118857Y-62181000D01*
X125214095Y-62276238D01*
X125261714Y-62371476D01*
X125309333Y-62561952D01*
X125309333Y-62704809D01*
X125261714Y-62895285D01*
X125214095Y-62990523D01*
X125118857Y-63085761D01*
X124976000Y-63133380D01*
X124737904Y-63133380D01*
X126166476Y-62466714D02*
X126166476Y-63133380D01*
X125928380Y-62085761D02*
X125690285Y-62800047D01*
X126309333Y-62800047D01*
X120134095Y-63503380D02*
X120134095Y-62503380D01*
X120705523Y-63503380D02*
X120276952Y-62931952D01*
X120705523Y-62503380D02*
X120134095Y-63074809D01*
%TO.C,D3*%
X124737904Y-54624380D02*
X124737904Y-53624380D01*
X124976000Y-53624380D01*
X125118857Y-53672000D01*
X125214095Y-53767238D01*
X125261714Y-53862476D01*
X125309333Y-54052952D01*
X125309333Y-54195809D01*
X125261714Y-54386285D01*
X125214095Y-54481523D01*
X125118857Y-54576761D01*
X124976000Y-54624380D01*
X124737904Y-54624380D01*
X125642666Y-53624380D02*
X126261714Y-53624380D01*
X125928380Y-54005333D01*
X126071238Y-54005333D01*
X126166476Y-54052952D01*
X126214095Y-54100571D01*
X126261714Y-54195809D01*
X126261714Y-54433904D01*
X126214095Y-54529142D01*
X126166476Y-54576761D01*
X126071238Y-54624380D01*
X125785523Y-54624380D01*
X125690285Y-54576761D01*
X125642666Y-54529142D01*
X120134095Y-54994380D02*
X120134095Y-53994380D01*
X120705523Y-54994380D02*
X120276952Y-54422952D01*
X120705523Y-53994380D02*
X120134095Y-54565809D01*
%TO.C,D2*%
X124610904Y-44083380D02*
X124610904Y-43083380D01*
X124849000Y-43083380D01*
X124991857Y-43131000D01*
X125087095Y-43226238D01*
X125134714Y-43321476D01*
X125182333Y-43511952D01*
X125182333Y-43654809D01*
X125134714Y-43845285D01*
X125087095Y-43940523D01*
X124991857Y-44035761D01*
X124849000Y-44083380D01*
X124610904Y-44083380D01*
X125563285Y-43178619D02*
X125610904Y-43131000D01*
X125706142Y-43083380D01*
X125944238Y-43083380D01*
X126039476Y-43131000D01*
X126087095Y-43178619D01*
X126134714Y-43273857D01*
X126134714Y-43369095D01*
X126087095Y-43511952D01*
X125515666Y-44083380D01*
X126134714Y-44083380D01*
X120007095Y-44453380D02*
X120007095Y-43453380D01*
X120578523Y-44453380D02*
X120149952Y-43881952D01*
X120578523Y-43453380D02*
X120007095Y-44024809D01*
%TO.C,D1*%
X124991904Y-33669380D02*
X124991904Y-32669380D01*
X125230000Y-32669380D01*
X125372857Y-32717000D01*
X125468095Y-32812238D01*
X125515714Y-32907476D01*
X125563333Y-33097952D01*
X125563333Y-33240809D01*
X125515714Y-33431285D01*
X125468095Y-33526523D01*
X125372857Y-33621761D01*
X125230000Y-33669380D01*
X124991904Y-33669380D01*
X126515714Y-33669380D02*
X125944285Y-33669380D01*
X126230000Y-33669380D02*
X126230000Y-32669380D01*
X126134761Y-32812238D01*
X126039523Y-32907476D01*
X125944285Y-32955095D01*
X120388095Y-34039380D02*
X120388095Y-33039380D01*
X120959523Y-34039380D02*
X120530952Y-33467952D01*
X120959523Y-33039380D02*
X120388095Y-33610809D01*
%TO.C,U1*%
X160655095Y-34100380D02*
X160655095Y-34909904D01*
X160702714Y-35005142D01*
X160750333Y-35052761D01*
X160845571Y-35100380D01*
X161036047Y-35100380D01*
X161131285Y-35052761D01*
X161178904Y-35005142D01*
X161226523Y-34909904D01*
X161226523Y-34100380D01*
X162226523Y-35100380D02*
X161655095Y-35100380D01*
X161940809Y-35100380D02*
X161940809Y-34100380D01*
X161845571Y-34243238D01*
X161750333Y-34338476D01*
X161655095Y-34386095D01*
%TO.C,T1*%
X96503380Y-51815904D02*
X96503380Y-51244476D01*
X97503380Y-51530190D02*
X96503380Y-51530190D01*
X97503380Y-50387333D02*
X97503380Y-50958761D01*
X97503380Y-50673047D02*
X96503380Y-50673047D01*
X96646238Y-50768285D01*
X96741476Y-50863523D01*
X96789095Y-50958761D01*
D12*
%TO.C,C3*%
X165399000Y-50297000D02*
X168431000Y-50297000D01*
X170913000Y-50897000D02*
X174275000Y-50897000D01*
X164690000Y-52057000D02*
X168431000Y-52057000D01*
X165956000Y-49577000D02*
X173388000Y-49577000D01*
X165051000Y-50937000D02*
X168431000Y-50937000D01*
X165780000Y-49777000D02*
X173564000Y-49777000D01*
X164622000Y-52498000D02*
X168431000Y-52498000D01*
X170913000Y-51617000D02*
X174546000Y-51617000D01*
X166466000Y-49097000D02*
X172878000Y-49097000D01*
X170913000Y-50177000D02*
X173866000Y-50177000D01*
X168294000Y-48137000D02*
X171050000Y-48137000D01*
X165506000Y-50137000D02*
X168431000Y-50137000D01*
X164637000Y-52378000D02*
X168431000Y-52378000D01*
X164904000Y-51297000D02*
X168431000Y-51297000D01*
X164594000Y-52898000D02*
X174750000Y-52898000D01*
X164848000Y-51457000D02*
X168431000Y-51457000D01*
X164787000Y-51657000D02*
X168431000Y-51657000D01*
X164648000Y-52297000D02*
X168431000Y-52297000D01*
X167233000Y-48577000D02*
X172111000Y-48577000D01*
X167307000Y-48537000D02*
X172037000Y-48537000D01*
X165088000Y-50857000D02*
X168431000Y-50857000D01*
X164592000Y-53058000D02*
X174752000Y-53058000D01*
X165592000Y-50017000D02*
X173752000Y-50017000D01*
X167728000Y-48337000D02*
X171616000Y-48337000D01*
X170913000Y-51697000D02*
X174569000Y-51697000D01*
X164725000Y-51897000D02*
X168431000Y-51897000D01*
X164716000Y-51937000D02*
X168431000Y-51937000D01*
X170913000Y-51737000D02*
X174579000Y-51737000D01*
X164875000Y-51377000D02*
X168431000Y-51377000D01*
X170913000Y-51097000D02*
X174362000Y-51097000D01*
X166111000Y-49417000D02*
X173233000Y-49417000D01*
X170913000Y-51377000D02*
X174469000Y-51377000D01*
X166672000Y-48937000D02*
X172672000Y-48937000D01*
X170913000Y-50937000D02*
X174293000Y-50937000D01*
X164595000Y-52858000D02*
X174749000Y-52858000D01*
X164675000Y-52137000D02*
X168431000Y-52137000D01*
X170913000Y-51017000D02*
X174329000Y-51017000D01*
X170913000Y-50297000D02*
X173945000Y-50297000D01*
X170913000Y-51457000D02*
X174496000Y-51457000D01*
X165033000Y-50977000D02*
X168431000Y-50977000D01*
X164734000Y-51857000D02*
X168431000Y-51857000D01*
X164754000Y-51777000D02*
X168431000Y-51777000D01*
X170913000Y-50217000D02*
X173893000Y-50217000D01*
X166236000Y-49297000D02*
X173108000Y-49297000D01*
X166566000Y-49017000D02*
X172778000Y-49017000D01*
X164642000Y-52337000D02*
X168431000Y-52337000D01*
X165015000Y-51017000D02*
X168431000Y-51017000D01*
X165325000Y-50417000D02*
X168431000Y-50417000D01*
X170913000Y-51177000D02*
X174395000Y-51177000D01*
X165425000Y-50257000D02*
X168431000Y-50257000D01*
X170913000Y-50697000D02*
X174176000Y-50697000D01*
X170913000Y-52137000D02*
X174669000Y-52137000D01*
X170913000Y-50337000D02*
X173970000Y-50337000D01*
X164810000Y-51577000D02*
X168431000Y-51577000D01*
X164592000Y-53018000D02*
X174752000Y-53018000D01*
X170913000Y-50257000D02*
X173919000Y-50257000D01*
X170913000Y-52418000D02*
X174712000Y-52418000D01*
X164654000Y-52257000D02*
X168431000Y-52257000D01*
X170913000Y-51857000D02*
X174610000Y-51857000D01*
X164861000Y-51417000D02*
X168431000Y-51417000D01*
X166963000Y-48737000D02*
X172381000Y-48737000D01*
X170913000Y-50497000D02*
X174067000Y-50497000D01*
X164661000Y-52217000D02*
X168431000Y-52217000D01*
X170913000Y-50817000D02*
X174236000Y-50817000D01*
X165534000Y-50097000D02*
X168431000Y-50097000D01*
X170913000Y-52458000D02*
X174717000Y-52458000D01*
X165168000Y-50697000D02*
X168431000Y-50697000D01*
X164822000Y-51537000D02*
X168431000Y-51537000D01*
X165374000Y-50337000D02*
X168431000Y-50337000D01*
X165189000Y-50657000D02*
X168431000Y-50657000D01*
X170913000Y-52538000D02*
X174726000Y-52538000D01*
X165478000Y-50177000D02*
X168431000Y-50177000D01*
X170913000Y-50577000D02*
X174112000Y-50577000D01*
X166783000Y-48857000D02*
X172561000Y-48857000D01*
X170913000Y-50737000D02*
X174197000Y-50737000D01*
X170913000Y-50457000D02*
X174043000Y-50457000D01*
X170913000Y-52297000D02*
X174696000Y-52297000D01*
X170913000Y-52498000D02*
X174722000Y-52498000D01*
X164982000Y-51097000D02*
X168431000Y-51097000D01*
X170913000Y-51497000D02*
X174509000Y-51497000D01*
X170913000Y-52217000D02*
X174683000Y-52217000D01*
X165715000Y-49857000D02*
X173629000Y-49857000D01*
X170913000Y-50417000D02*
X174019000Y-50417000D01*
X170913000Y-52378000D02*
X174707000Y-52378000D01*
X170913000Y-50977000D02*
X174311000Y-50977000D01*
X170913000Y-52097000D02*
X174662000Y-52097000D01*
X170913000Y-51337000D02*
X174455000Y-51337000D01*
X166371000Y-49177000D02*
X172973000Y-49177000D01*
X165848000Y-49697000D02*
X173496000Y-49697000D01*
X164618000Y-52538000D02*
X168431000Y-52538000D01*
X170913000Y-51657000D02*
X174557000Y-51657000D01*
X167463000Y-48457000D02*
X171881000Y-48457000D01*
X170913000Y-51297000D02*
X174440000Y-51297000D01*
X170913000Y-51537000D02*
X174522000Y-51537000D01*
X170913000Y-51577000D02*
X174534000Y-51577000D01*
X164835000Y-51497000D02*
X168431000Y-51497000D01*
X166902000Y-48777000D02*
X172442000Y-48777000D01*
X170913000Y-50097000D02*
X173810000Y-50097000D01*
X167162000Y-48617000D02*
X172182000Y-48617000D01*
X164934000Y-51217000D02*
X168431000Y-51217000D01*
X165814000Y-49737000D02*
X173530000Y-49737000D01*
X167635000Y-48377000D02*
X171709000Y-48377000D01*
X168610000Y-48057000D02*
X170734000Y-48057000D01*
X165127000Y-50777000D02*
X168431000Y-50777000D01*
X170913000Y-51897000D02*
X174619000Y-51897000D01*
X167547000Y-48417000D02*
X171797000Y-48417000D01*
X170913000Y-51977000D02*
X174637000Y-51977000D01*
X170913000Y-52057000D02*
X174654000Y-52057000D01*
X170913000Y-51137000D02*
X174379000Y-51137000D01*
X170913000Y-51217000D02*
X174410000Y-51217000D01*
X164604000Y-52698000D02*
X174740000Y-52698000D01*
X170913000Y-52177000D02*
X174676000Y-52177000D01*
X165255000Y-50537000D02*
X168431000Y-50537000D01*
X165622000Y-49977000D02*
X173722000Y-49977000D01*
X164798000Y-51617000D02*
X168431000Y-51617000D01*
X170913000Y-50857000D02*
X174256000Y-50857000D01*
X165683000Y-49897000D02*
X173661000Y-49897000D01*
X165993000Y-49537000D02*
X173351000Y-49537000D01*
X170913000Y-52017000D02*
X174646000Y-52017000D01*
X170913000Y-51057000D02*
X174346000Y-51057000D01*
X170913000Y-50777000D02*
X174217000Y-50777000D01*
X164707000Y-51977000D02*
X168431000Y-51977000D01*
X164610000Y-52618000D02*
X174734000Y-52618000D01*
X166032000Y-49497000D02*
X173312000Y-49497000D01*
X168162000Y-48177000D02*
X171182000Y-48177000D01*
X164668000Y-52177000D02*
X168431000Y-52177000D01*
X164918000Y-51257000D02*
X168431000Y-51257000D01*
X164682000Y-52097000D02*
X168431000Y-52097000D01*
X167027000Y-48697000D02*
X172317000Y-48697000D01*
X165301000Y-50457000D02*
X168431000Y-50457000D01*
X165232000Y-50577000D02*
X168431000Y-50577000D01*
X167930000Y-48257000D02*
X171414000Y-48257000D01*
X170913000Y-50377000D02*
X173995000Y-50377000D01*
X170913000Y-51937000D02*
X174628000Y-51937000D01*
X168442000Y-48097000D02*
X170902000Y-48097000D01*
X170913000Y-50657000D02*
X174155000Y-50657000D01*
X164965000Y-51137000D02*
X168431000Y-51137000D01*
X168042000Y-48217000D02*
X171302000Y-48217000D01*
X167383000Y-48497000D02*
X171961000Y-48497000D01*
X170913000Y-51417000D02*
X174483000Y-51417000D01*
X170913000Y-51777000D02*
X174590000Y-51777000D01*
X170913000Y-51257000D02*
X174426000Y-51257000D01*
X166516000Y-49057000D02*
X172828000Y-49057000D01*
X170913000Y-51817000D02*
X174600000Y-51817000D01*
X166071000Y-49457000D02*
X173273000Y-49457000D01*
X164607000Y-52658000D02*
X174737000Y-52658000D01*
X166325000Y-49217000D02*
X173019000Y-49217000D01*
X165747000Y-49817000D02*
X173597000Y-49817000D01*
X164744000Y-51817000D02*
X168431000Y-51817000D01*
X164889000Y-51337000D02*
X168431000Y-51337000D01*
X164775000Y-51697000D02*
X168431000Y-51697000D01*
X165147000Y-50737000D02*
X168431000Y-50737000D01*
X166280000Y-49257000D02*
X173064000Y-49257000D01*
X164602000Y-52738000D02*
X174742000Y-52738000D01*
X167826000Y-48297000D02*
X171518000Y-48297000D01*
X166152000Y-49377000D02*
X173192000Y-49377000D01*
X164698000Y-52017000D02*
X168431000Y-52017000D01*
X170913000Y-52257000D02*
X174690000Y-52257000D01*
X169073000Y-47977000D02*
X170271000Y-47977000D01*
X164599000Y-52778000D02*
X174745000Y-52778000D01*
X164627000Y-52458000D02*
X168431000Y-52458000D01*
X164949000Y-51177000D02*
X168431000Y-51177000D01*
X164614000Y-52578000D02*
X174730000Y-52578000D01*
X166842000Y-48817000D02*
X172502000Y-48817000D01*
X166727000Y-48897000D02*
X172617000Y-48897000D01*
X167093000Y-48657000D02*
X172251000Y-48657000D01*
X166418000Y-49137000D02*
X172926000Y-49137000D01*
X166194000Y-49337000D02*
X173150000Y-49337000D01*
X164593000Y-52938000D02*
X174751000Y-52938000D01*
X170913000Y-52337000D02*
X174702000Y-52337000D01*
X164765000Y-51737000D02*
X168431000Y-51737000D01*
X168810000Y-48017000D02*
X170534000Y-48017000D01*
X170913000Y-50137000D02*
X173838000Y-50137000D01*
X166797000Y-58537646D02*
X166797000Y-57537646D01*
X165349000Y-50377000D02*
X168431000Y-50377000D01*
X166297000Y-58037646D02*
X167297000Y-58037646D01*
X170913000Y-50537000D02*
X174089000Y-50537000D01*
X165883000Y-49657000D02*
X173461000Y-49657000D01*
X164592000Y-52978000D02*
X174752000Y-52978000D01*
X165069000Y-50897000D02*
X168431000Y-50897000D01*
X164998000Y-51057000D02*
X168431000Y-51057000D01*
X165277000Y-50497000D02*
X168431000Y-50497000D01*
X164632000Y-52418000D02*
X168431000Y-52418000D01*
X165108000Y-50817000D02*
X168431000Y-50817000D01*
X165451000Y-50217000D02*
X168431000Y-50217000D01*
X165652000Y-49937000D02*
X173692000Y-49937000D01*
X170913000Y-50617000D02*
X174134000Y-50617000D01*
X165210000Y-50617000D02*
X168431000Y-50617000D01*
X166618000Y-48977000D02*
X172726000Y-48977000D01*
X165919000Y-49617000D02*
X173425000Y-49617000D01*
X165562000Y-50057000D02*
X173782000Y-50057000D01*
X164597000Y-52818000D02*
X174747000Y-52818000D01*
X174792000Y-53058000D02*
G75*
G03*
X174792000Y-53058000I-5120000J0D01*
G01*
%TO.C,C2*%
X136824000Y-49408000D02*
X139856000Y-49408000D01*
X142338000Y-50008000D02*
X145700000Y-50008000D01*
X136115000Y-51168000D02*
X139856000Y-51168000D01*
X137381000Y-48688000D02*
X144813000Y-48688000D01*
X136476000Y-50048000D02*
X139856000Y-50048000D01*
X137205000Y-48888000D02*
X144989000Y-48888000D01*
X136047000Y-51609000D02*
X139856000Y-51609000D01*
X142338000Y-50728000D02*
X145971000Y-50728000D01*
X137891000Y-48208000D02*
X144303000Y-48208000D01*
X142338000Y-49288000D02*
X145291000Y-49288000D01*
X139719000Y-47248000D02*
X142475000Y-47248000D01*
X136931000Y-49248000D02*
X139856000Y-49248000D01*
X136062000Y-51489000D02*
X139856000Y-51489000D01*
X136329000Y-50408000D02*
X139856000Y-50408000D01*
X136019000Y-52009000D02*
X146175000Y-52009000D01*
X136273000Y-50568000D02*
X139856000Y-50568000D01*
X136212000Y-50768000D02*
X139856000Y-50768000D01*
X136073000Y-51408000D02*
X139856000Y-51408000D01*
X138658000Y-47688000D02*
X143536000Y-47688000D01*
X138732000Y-47648000D02*
X143462000Y-47648000D01*
X136513000Y-49968000D02*
X139856000Y-49968000D01*
X136017000Y-52169000D02*
X146177000Y-52169000D01*
X137017000Y-49128000D02*
X145177000Y-49128000D01*
X139153000Y-47448000D02*
X143041000Y-47448000D01*
X142338000Y-50808000D02*
X145994000Y-50808000D01*
X136150000Y-51008000D02*
X139856000Y-51008000D01*
X136141000Y-51048000D02*
X139856000Y-51048000D01*
X142338000Y-50848000D02*
X146004000Y-50848000D01*
X136300000Y-50488000D02*
X139856000Y-50488000D01*
X142338000Y-50208000D02*
X145787000Y-50208000D01*
X137536000Y-48528000D02*
X144658000Y-48528000D01*
X142338000Y-50488000D02*
X145894000Y-50488000D01*
X138097000Y-48048000D02*
X144097000Y-48048000D01*
X142338000Y-50048000D02*
X145718000Y-50048000D01*
X136020000Y-51969000D02*
X146174000Y-51969000D01*
X136100000Y-51248000D02*
X139856000Y-51248000D01*
X142338000Y-50128000D02*
X145754000Y-50128000D01*
X142338000Y-49408000D02*
X145370000Y-49408000D01*
X142338000Y-50568000D02*
X145921000Y-50568000D01*
X136458000Y-50088000D02*
X139856000Y-50088000D01*
X136159000Y-50968000D02*
X139856000Y-50968000D01*
X136179000Y-50888000D02*
X139856000Y-50888000D01*
X142338000Y-49328000D02*
X145318000Y-49328000D01*
X137661000Y-48408000D02*
X144533000Y-48408000D01*
X137991000Y-48128000D02*
X144203000Y-48128000D01*
X136067000Y-51448000D02*
X139856000Y-51448000D01*
X136440000Y-50128000D02*
X139856000Y-50128000D01*
X136750000Y-49528000D02*
X139856000Y-49528000D01*
X142338000Y-50288000D02*
X145820000Y-50288000D01*
X136850000Y-49368000D02*
X139856000Y-49368000D01*
X142338000Y-49808000D02*
X145601000Y-49808000D01*
X142338000Y-51248000D02*
X146094000Y-51248000D01*
X142338000Y-49448000D02*
X145395000Y-49448000D01*
X136235000Y-50688000D02*
X139856000Y-50688000D01*
X136017000Y-52129000D02*
X146177000Y-52129000D01*
X142338000Y-49368000D02*
X145344000Y-49368000D01*
X142338000Y-51529000D02*
X146137000Y-51529000D01*
X136079000Y-51368000D02*
X139856000Y-51368000D01*
X142338000Y-50968000D02*
X146035000Y-50968000D01*
X136286000Y-50528000D02*
X139856000Y-50528000D01*
X138388000Y-47848000D02*
X143806000Y-47848000D01*
X142338000Y-49608000D02*
X145492000Y-49608000D01*
X136086000Y-51328000D02*
X139856000Y-51328000D01*
X142338000Y-49928000D02*
X145661000Y-49928000D01*
X136959000Y-49208000D02*
X139856000Y-49208000D01*
X142338000Y-51569000D02*
X146142000Y-51569000D01*
X136593000Y-49808000D02*
X139856000Y-49808000D01*
X136247000Y-50648000D02*
X139856000Y-50648000D01*
X136799000Y-49448000D02*
X139856000Y-49448000D01*
X136614000Y-49768000D02*
X139856000Y-49768000D01*
X142338000Y-51649000D02*
X146151000Y-51649000D01*
X136903000Y-49288000D02*
X139856000Y-49288000D01*
X142338000Y-49688000D02*
X145537000Y-49688000D01*
X138208000Y-47968000D02*
X143986000Y-47968000D01*
X142338000Y-49848000D02*
X145622000Y-49848000D01*
X142338000Y-49568000D02*
X145468000Y-49568000D01*
X142338000Y-51408000D02*
X146121000Y-51408000D01*
X142338000Y-51609000D02*
X146147000Y-51609000D01*
X136407000Y-50208000D02*
X139856000Y-50208000D01*
X142338000Y-50608000D02*
X145934000Y-50608000D01*
X142338000Y-51328000D02*
X146108000Y-51328000D01*
X137140000Y-48968000D02*
X145054000Y-48968000D01*
X142338000Y-49528000D02*
X145444000Y-49528000D01*
X142338000Y-51489000D02*
X146132000Y-51489000D01*
X142338000Y-50088000D02*
X145736000Y-50088000D01*
X142338000Y-51208000D02*
X146087000Y-51208000D01*
X142338000Y-50448000D02*
X145880000Y-50448000D01*
X137796000Y-48288000D02*
X144398000Y-48288000D01*
X137273000Y-48808000D02*
X144921000Y-48808000D01*
X136043000Y-51649000D02*
X139856000Y-51649000D01*
X142338000Y-50768000D02*
X145982000Y-50768000D01*
X138888000Y-47568000D02*
X143306000Y-47568000D01*
X142338000Y-50408000D02*
X145865000Y-50408000D01*
X142338000Y-50648000D02*
X145947000Y-50648000D01*
X142338000Y-50688000D02*
X145959000Y-50688000D01*
X136260000Y-50608000D02*
X139856000Y-50608000D01*
X138327000Y-47888000D02*
X143867000Y-47888000D01*
X142338000Y-49208000D02*
X145235000Y-49208000D01*
X138587000Y-47728000D02*
X143607000Y-47728000D01*
X136359000Y-50328000D02*
X139856000Y-50328000D01*
X137239000Y-48848000D02*
X144955000Y-48848000D01*
X139060000Y-47488000D02*
X143134000Y-47488000D01*
X140035000Y-47168000D02*
X142159000Y-47168000D01*
X136552000Y-49888000D02*
X139856000Y-49888000D01*
X142338000Y-51008000D02*
X146044000Y-51008000D01*
X138972000Y-47528000D02*
X143222000Y-47528000D01*
X142338000Y-51088000D02*
X146062000Y-51088000D01*
X142338000Y-51168000D02*
X146079000Y-51168000D01*
X142338000Y-50248000D02*
X145804000Y-50248000D01*
X142338000Y-50328000D02*
X145835000Y-50328000D01*
X136029000Y-51809000D02*
X146165000Y-51809000D01*
X142338000Y-51288000D02*
X146101000Y-51288000D01*
X136680000Y-49648000D02*
X139856000Y-49648000D01*
X137047000Y-49088000D02*
X145147000Y-49088000D01*
X136223000Y-50728000D02*
X139856000Y-50728000D01*
X142338000Y-49968000D02*
X145681000Y-49968000D01*
X137108000Y-49008000D02*
X145086000Y-49008000D01*
X137418000Y-48648000D02*
X144776000Y-48648000D01*
X142338000Y-51128000D02*
X146071000Y-51128000D01*
X142338000Y-50168000D02*
X145771000Y-50168000D01*
X142338000Y-49888000D02*
X145642000Y-49888000D01*
X136132000Y-51088000D02*
X139856000Y-51088000D01*
X136035000Y-51729000D02*
X146159000Y-51729000D01*
X137457000Y-48608000D02*
X144737000Y-48608000D01*
X139587000Y-47288000D02*
X142607000Y-47288000D01*
X136093000Y-51288000D02*
X139856000Y-51288000D01*
X136343000Y-50368000D02*
X139856000Y-50368000D01*
X136107000Y-51208000D02*
X139856000Y-51208000D01*
X138452000Y-47808000D02*
X143742000Y-47808000D01*
X136726000Y-49568000D02*
X139856000Y-49568000D01*
X136657000Y-49688000D02*
X139856000Y-49688000D01*
X139355000Y-47368000D02*
X142839000Y-47368000D01*
X142338000Y-49488000D02*
X145420000Y-49488000D01*
X142338000Y-51048000D02*
X146053000Y-51048000D01*
X139867000Y-47208000D02*
X142327000Y-47208000D01*
X142338000Y-49768000D02*
X145580000Y-49768000D01*
X136390000Y-50248000D02*
X139856000Y-50248000D01*
X139467000Y-47328000D02*
X142727000Y-47328000D01*
X138808000Y-47608000D02*
X143386000Y-47608000D01*
X142338000Y-50528000D02*
X145908000Y-50528000D01*
X142338000Y-50888000D02*
X146015000Y-50888000D01*
X142338000Y-50368000D02*
X145851000Y-50368000D01*
X137941000Y-48168000D02*
X144253000Y-48168000D01*
X142338000Y-50928000D02*
X146025000Y-50928000D01*
X137496000Y-48568000D02*
X144698000Y-48568000D01*
X136032000Y-51769000D02*
X146162000Y-51769000D01*
X137750000Y-48328000D02*
X144444000Y-48328000D01*
X137172000Y-48928000D02*
X145022000Y-48928000D01*
X136169000Y-50928000D02*
X139856000Y-50928000D01*
X136314000Y-50448000D02*
X139856000Y-50448000D01*
X136200000Y-50808000D02*
X139856000Y-50808000D01*
X136572000Y-49848000D02*
X139856000Y-49848000D01*
X137705000Y-48368000D02*
X144489000Y-48368000D01*
X136027000Y-51849000D02*
X146167000Y-51849000D01*
X139251000Y-47408000D02*
X142943000Y-47408000D01*
X137577000Y-48488000D02*
X144617000Y-48488000D01*
X136123000Y-51128000D02*
X139856000Y-51128000D01*
X142338000Y-51368000D02*
X146115000Y-51368000D01*
X140498000Y-47088000D02*
X141696000Y-47088000D01*
X136024000Y-51889000D02*
X146170000Y-51889000D01*
X136052000Y-51569000D02*
X139856000Y-51569000D01*
X136374000Y-50288000D02*
X139856000Y-50288000D01*
X136039000Y-51689000D02*
X146155000Y-51689000D01*
X138267000Y-47928000D02*
X143927000Y-47928000D01*
X138152000Y-48008000D02*
X144042000Y-48008000D01*
X138518000Y-47768000D02*
X143676000Y-47768000D01*
X137843000Y-48248000D02*
X144351000Y-48248000D01*
X137619000Y-48448000D02*
X144575000Y-48448000D01*
X136018000Y-52049000D02*
X146176000Y-52049000D01*
X142338000Y-51448000D02*
X146127000Y-51448000D01*
X136190000Y-50848000D02*
X139856000Y-50848000D01*
X140235000Y-47128000D02*
X141959000Y-47128000D01*
X142338000Y-49248000D02*
X145263000Y-49248000D01*
X138222000Y-57648646D02*
X138222000Y-56648646D01*
X136774000Y-49488000D02*
X139856000Y-49488000D01*
X137722000Y-57148646D02*
X138722000Y-57148646D01*
X142338000Y-49648000D02*
X145514000Y-49648000D01*
X137308000Y-48768000D02*
X144886000Y-48768000D01*
X136017000Y-52089000D02*
X146177000Y-52089000D01*
X136494000Y-50008000D02*
X139856000Y-50008000D01*
X136423000Y-50168000D02*
X139856000Y-50168000D01*
X136702000Y-49608000D02*
X139856000Y-49608000D01*
X136057000Y-51529000D02*
X139856000Y-51529000D01*
X136533000Y-49928000D02*
X139856000Y-49928000D01*
X136876000Y-49328000D02*
X139856000Y-49328000D01*
X137077000Y-49048000D02*
X145117000Y-49048000D01*
X142338000Y-49728000D02*
X145559000Y-49728000D01*
X136635000Y-49728000D02*
X139856000Y-49728000D01*
X138043000Y-48088000D02*
X144151000Y-48088000D01*
X137344000Y-48728000D02*
X144850000Y-48728000D01*
X136987000Y-49168000D02*
X145207000Y-49168000D01*
X136022000Y-51929000D02*
X146172000Y-51929000D01*
X146217000Y-52169000D02*
G75*
G03*
X146217000Y-52169000I-5120000J0D01*
G01*
%TO.C,C1*%
X159679000Y-52733000D02*
G75*
G03*
X159679000Y-52733000I-5120000J0D01*
G01*
X149484000Y-52493000D02*
X159634000Y-52493000D01*
X150449000Y-49732000D02*
X158669000Y-49732000D01*
X150806000Y-49292000D02*
X158312000Y-49292000D01*
X151505000Y-48652000D02*
X157613000Y-48652000D01*
X150097000Y-50292000D02*
X153318000Y-50292000D01*
X155800000Y-50292000D02*
X159021000Y-50292000D01*
X150539000Y-49612000D02*
X158579000Y-49612000D01*
X150338000Y-49892000D02*
X153318000Y-49892000D01*
X149995000Y-50492000D02*
X153318000Y-50492000D01*
X149519000Y-52093000D02*
X153318000Y-52093000D01*
X150164000Y-50172000D02*
X153318000Y-50172000D01*
X149885000Y-50732000D02*
X153318000Y-50732000D01*
X149956000Y-50572000D02*
X153318000Y-50572000D01*
X149479000Y-52653000D02*
X159639000Y-52653000D01*
X150770000Y-49332000D02*
X158348000Y-49332000D01*
X155800000Y-50212000D02*
X158976000Y-50212000D01*
X151184000Y-57712646D02*
X152184000Y-57712646D01*
X150236000Y-50052000D02*
X153318000Y-50052000D01*
X151684000Y-58212646D02*
X151684000Y-57212646D01*
X155800000Y-49812000D02*
X158725000Y-49812000D01*
X153697000Y-47692000D02*
X155421000Y-47692000D01*
X149652000Y-51412000D02*
X153318000Y-51412000D01*
X155800000Y-52012000D02*
X159589000Y-52012000D01*
X149480000Y-52613000D02*
X159638000Y-52613000D01*
X151081000Y-49012000D02*
X158037000Y-49012000D01*
X151305000Y-48812000D02*
X157813000Y-48812000D01*
X151980000Y-48332000D02*
X157138000Y-48332000D01*
X151614000Y-48572000D02*
X157504000Y-48572000D01*
X151729000Y-48492000D02*
X157389000Y-48492000D01*
X149501000Y-52253000D02*
X159617000Y-52253000D01*
X149836000Y-50852000D02*
X153318000Y-50852000D01*
X149514000Y-52133000D02*
X153318000Y-52133000D01*
X149486000Y-52453000D02*
X159632000Y-52453000D01*
X153960000Y-47652000D02*
X155158000Y-47652000D01*
X155800000Y-51932000D02*
X159577000Y-51932000D01*
X149585000Y-51692000D02*
X153318000Y-51692000D01*
X151039000Y-49052000D02*
X158079000Y-49052000D01*
X152713000Y-47972000D02*
X156405000Y-47972000D01*
X149489000Y-52413000D02*
X159629000Y-52413000D01*
X151167000Y-48932000D02*
X157951000Y-48932000D01*
X150034000Y-50412000D02*
X153318000Y-50412000D01*
X149662000Y-51372000D02*
X153318000Y-51372000D01*
X149776000Y-51012000D02*
X153318000Y-51012000D01*
X149631000Y-51492000D02*
X153318000Y-51492000D01*
X150634000Y-49492000D02*
X158484000Y-49492000D01*
X151212000Y-48892000D02*
X157906000Y-48892000D01*
X149494000Y-52333000D02*
X159624000Y-52333000D01*
X150958000Y-49132000D02*
X158160000Y-49132000D01*
X155800000Y-51492000D02*
X159487000Y-51492000D01*
X151403000Y-48732000D02*
X157715000Y-48732000D01*
X155800000Y-50932000D02*
X159313000Y-50932000D01*
X155800000Y-51452000D02*
X159477000Y-51452000D01*
X155800000Y-51092000D02*
X159370000Y-51092000D01*
X152270000Y-48172000D02*
X156848000Y-48172000D01*
X152929000Y-47892000D02*
X156189000Y-47892000D01*
X149852000Y-50812000D02*
X153318000Y-50812000D01*
X155800000Y-50332000D02*
X159042000Y-50332000D01*
X153329000Y-47772000D02*
X155789000Y-47772000D01*
X155800000Y-51612000D02*
X159515000Y-51612000D01*
X155800000Y-50052000D02*
X158882000Y-50052000D01*
X152817000Y-47932000D02*
X156301000Y-47932000D01*
X150119000Y-50252000D02*
X153318000Y-50252000D01*
X150188000Y-50132000D02*
X153318000Y-50132000D01*
X151914000Y-48372000D02*
X157204000Y-48372000D01*
X149569000Y-51772000D02*
X153318000Y-51772000D01*
X149805000Y-50932000D02*
X153318000Y-50932000D01*
X149555000Y-51852000D02*
X153318000Y-51852000D01*
X153049000Y-47852000D02*
X156069000Y-47852000D01*
X150919000Y-49172000D02*
X158199000Y-49172000D01*
X149497000Y-52293000D02*
X159621000Y-52293000D01*
X149594000Y-51652000D02*
X153318000Y-51652000D01*
X155800000Y-50452000D02*
X159104000Y-50452000D01*
X155800000Y-50732000D02*
X159233000Y-50732000D01*
X155800000Y-51692000D02*
X159533000Y-51692000D01*
X150880000Y-49212000D02*
X158238000Y-49212000D01*
X150570000Y-49572000D02*
X158548000Y-49572000D01*
X155800000Y-50532000D02*
X159143000Y-50532000D01*
X149685000Y-51292000D02*
X153318000Y-51292000D01*
X150509000Y-49652000D02*
X158609000Y-49652000D01*
X150142000Y-50212000D02*
X153318000Y-50212000D01*
X155800000Y-51852000D02*
X159563000Y-51852000D01*
X149491000Y-52373000D02*
X159627000Y-52373000D01*
X155800000Y-50892000D02*
X159297000Y-50892000D01*
X155800000Y-50812000D02*
X159266000Y-50812000D01*
X155800000Y-51732000D02*
X159541000Y-51732000D01*
X155800000Y-51652000D02*
X159524000Y-51652000D01*
X152434000Y-48092000D02*
X156684000Y-48092000D01*
X155800000Y-51572000D02*
X159506000Y-51572000D01*
X150014000Y-50452000D02*
X153318000Y-50452000D01*
X153497000Y-47732000D02*
X155621000Y-47732000D01*
X152522000Y-48052000D02*
X156596000Y-48052000D01*
X150701000Y-49412000D02*
X158417000Y-49412000D01*
X149821000Y-50892000D02*
X153318000Y-50892000D01*
X152049000Y-48292000D02*
X157069000Y-48292000D01*
X155800000Y-49772000D02*
X158697000Y-49772000D01*
X151789000Y-48452000D02*
X157329000Y-48452000D01*
X149722000Y-51172000D02*
X153318000Y-51172000D01*
X155800000Y-51252000D02*
X159421000Y-51252000D01*
X155800000Y-51212000D02*
X159409000Y-51212000D01*
X155800000Y-50972000D02*
X159327000Y-50972000D01*
X152350000Y-48132000D02*
X156768000Y-48132000D01*
X155800000Y-51332000D02*
X159444000Y-51332000D01*
X149505000Y-52213000D02*
X153318000Y-52213000D01*
X150735000Y-49372000D02*
X158383000Y-49372000D01*
X151258000Y-48852000D02*
X157860000Y-48852000D01*
X155800000Y-51012000D02*
X159342000Y-51012000D01*
X155800000Y-51772000D02*
X159549000Y-51772000D01*
X155800000Y-50652000D02*
X159198000Y-50652000D01*
X155800000Y-52053000D02*
X159594000Y-52053000D01*
X155800000Y-50092000D02*
X158906000Y-50092000D01*
X150602000Y-49532000D02*
X158516000Y-49532000D01*
X155800000Y-51892000D02*
X159570000Y-51892000D01*
X155800000Y-51172000D02*
X159396000Y-51172000D01*
X149869000Y-50772000D02*
X153318000Y-50772000D01*
X155800000Y-52173000D02*
X159609000Y-52173000D01*
X155800000Y-51972000D02*
X159583000Y-51972000D01*
X155800000Y-50132000D02*
X158930000Y-50132000D01*
X155800000Y-50412000D02*
X159084000Y-50412000D01*
X151670000Y-48532000D02*
X157448000Y-48532000D01*
X155800000Y-50252000D02*
X158999000Y-50252000D01*
X150365000Y-49852000D02*
X153318000Y-49852000D01*
X155800000Y-52213000D02*
X159613000Y-52213000D01*
X150076000Y-50332000D02*
X153318000Y-50332000D01*
X150261000Y-50012000D02*
X153318000Y-50012000D01*
X149709000Y-51212000D02*
X153318000Y-51212000D01*
X150055000Y-50372000D02*
X153318000Y-50372000D01*
X155800000Y-52133000D02*
X159604000Y-52133000D01*
X150421000Y-49772000D02*
X153318000Y-49772000D01*
X155800000Y-50492000D02*
X159123000Y-50492000D01*
X149548000Y-51892000D02*
X153318000Y-51892000D01*
X155800000Y-50172000D02*
X158954000Y-50172000D01*
X151850000Y-48412000D02*
X157268000Y-48412000D01*
X149748000Y-51092000D02*
X153318000Y-51092000D01*
X155800000Y-51532000D02*
X159497000Y-51532000D01*
X149541000Y-51932000D02*
X153318000Y-51932000D01*
X155800000Y-52093000D02*
X159599000Y-52093000D01*
X155800000Y-49932000D02*
X158806000Y-49932000D01*
X149479000Y-52693000D02*
X159639000Y-52693000D01*
X149697000Y-51252000D02*
X153318000Y-51252000D01*
X155800000Y-50012000D02*
X158857000Y-50012000D01*
X155800000Y-51812000D02*
X159556000Y-51812000D01*
X155800000Y-50372000D02*
X159063000Y-50372000D01*
X150312000Y-49932000D02*
X153318000Y-49932000D01*
X155800000Y-50852000D02*
X159282000Y-50852000D01*
X150212000Y-50092000D02*
X153318000Y-50092000D01*
X149902000Y-50692000D02*
X153318000Y-50692000D01*
X149529000Y-52012000D02*
X153318000Y-52012000D01*
X151453000Y-48692000D02*
X157665000Y-48692000D01*
X151123000Y-48972000D02*
X157995000Y-48972000D01*
X155800000Y-49892000D02*
X158780000Y-49892000D01*
X149641000Y-51452000D02*
X153318000Y-51452000D01*
X149621000Y-51532000D02*
X153318000Y-51532000D01*
X149920000Y-50652000D02*
X153318000Y-50652000D01*
X155800000Y-51132000D02*
X159383000Y-51132000D01*
X155800000Y-49972000D02*
X158832000Y-49972000D01*
X155800000Y-50692000D02*
X159216000Y-50692000D01*
X149562000Y-51812000D02*
X153318000Y-51812000D01*
X149482000Y-52533000D02*
X159636000Y-52533000D01*
X155800000Y-50612000D02*
X159180000Y-50612000D01*
X151559000Y-48612000D02*
X157559000Y-48612000D01*
X155800000Y-51052000D02*
X159356000Y-51052000D01*
X150998000Y-49092000D02*
X158120000Y-49092000D01*
X155800000Y-50772000D02*
X159249000Y-50772000D01*
X149762000Y-51052000D02*
X153318000Y-51052000D01*
X155800000Y-51412000D02*
X159466000Y-51412000D01*
X149603000Y-51612000D02*
X153318000Y-51612000D01*
X149612000Y-51572000D02*
X153318000Y-51572000D01*
X155800000Y-51372000D02*
X159456000Y-51372000D01*
X152615000Y-48012000D02*
X156503000Y-48012000D01*
X150479000Y-49692000D02*
X158639000Y-49692000D01*
X149479000Y-52733000D02*
X159639000Y-52733000D01*
X149975000Y-50532000D02*
X153318000Y-50532000D01*
X152194000Y-48212000D02*
X156924000Y-48212000D01*
X152120000Y-48252000D02*
X156998000Y-48252000D01*
X149535000Y-51972000D02*
X153318000Y-51972000D01*
X149674000Y-51332000D02*
X153318000Y-51332000D01*
X149735000Y-51132000D02*
X153318000Y-51132000D01*
X149481000Y-52573000D02*
X159637000Y-52573000D01*
X149791000Y-50972000D02*
X153318000Y-50972000D01*
X149524000Y-52053000D02*
X153318000Y-52053000D01*
X150393000Y-49812000D02*
X153318000Y-49812000D01*
X153181000Y-47812000D02*
X155937000Y-47812000D01*
X155800000Y-49852000D02*
X158753000Y-49852000D01*
X151353000Y-48772000D02*
X157765000Y-48772000D01*
X155800000Y-51292000D02*
X159433000Y-51292000D01*
X149509000Y-52173000D02*
X153318000Y-52173000D01*
X150667000Y-49452000D02*
X158451000Y-49452000D01*
X149938000Y-50612000D02*
X153318000Y-50612000D01*
X150843000Y-49252000D02*
X158275000Y-49252000D01*
X149577000Y-51732000D02*
X153318000Y-51732000D01*
X155800000Y-50572000D02*
X159162000Y-50572000D01*
X150286000Y-49972000D02*
X153318000Y-49972000D01*
%TO.C,J2*%
X181030471Y-49782000D02*
X181577000Y-49782000D01*
X179357000Y-49782000D02*
X179903529Y-49782000D01*
X179357000Y-48262000D02*
X180467000Y-48262000D01*
X179357000Y-49782000D02*
X179357000Y-50987000D01*
X179357000Y-50987000D02*
X180159470Y-50987000D01*
X179357000Y-49022000D02*
X179357000Y-48262000D01*
X181577000Y-49782000D02*
X181577000Y-50987000D01*
X180774530Y-50987000D02*
X181577000Y-50987000D01*
%TO.C,J1*%
X88701471Y-50925000D02*
X89248000Y-50925000D01*
X87028000Y-50925000D02*
X87574529Y-50925000D01*
X87028000Y-49405000D02*
X88138000Y-49405000D01*
X87028000Y-50925000D02*
X87028000Y-52130000D01*
X87028000Y-52130000D02*
X87830470Y-52130000D01*
X87028000Y-50165000D02*
X87028000Y-49405000D01*
X89248000Y-50925000D02*
X89248000Y-52130000D01*
X88445530Y-52130000D02*
X89248000Y-52130000D01*
%TO.C,D4*%
X123656000Y-63681000D02*
X123656000Y-66621000D01*
X123776000Y-63681000D02*
X123776000Y-66621000D01*
X122756000Y-66621000D02*
X128196000Y-66621000D01*
X129216000Y-65151000D02*
X128196000Y-65151000D01*
X122756000Y-63681000D02*
X122756000Y-66621000D01*
X123536000Y-63681000D02*
X123536000Y-66621000D01*
X128196000Y-66621000D02*
X128196000Y-63681000D01*
X121736000Y-65151000D02*
X122756000Y-65151000D01*
X128196000Y-63681000D02*
X122756000Y-63681000D01*
%TO.C,D3*%
X123656000Y-55172000D02*
X123656000Y-58112000D01*
X123776000Y-55172000D02*
X123776000Y-58112000D01*
X122756000Y-58112000D02*
X128196000Y-58112000D01*
X129216000Y-56642000D02*
X128196000Y-56642000D01*
X122756000Y-55172000D02*
X122756000Y-58112000D01*
X123536000Y-55172000D02*
X123536000Y-58112000D01*
X128196000Y-58112000D02*
X128196000Y-55172000D01*
X121736000Y-56642000D02*
X122756000Y-56642000D01*
X128196000Y-55172000D02*
X122756000Y-55172000D01*
%TO.C,D2*%
X128069000Y-44631000D02*
X122629000Y-44631000D01*
X121609000Y-46101000D02*
X122629000Y-46101000D01*
X128069000Y-47571000D02*
X128069000Y-44631000D01*
X123409000Y-44631000D02*
X123409000Y-47571000D01*
X122629000Y-44631000D02*
X122629000Y-47571000D01*
X129089000Y-46101000D02*
X128069000Y-46101000D01*
X122629000Y-47571000D02*
X128069000Y-47571000D01*
X123649000Y-44631000D02*
X123649000Y-47571000D01*
X123529000Y-44631000D02*
X123529000Y-47571000D01*
%TO.C,D1*%
X128450000Y-34217000D02*
X123010000Y-34217000D01*
X121990000Y-35687000D02*
X123010000Y-35687000D01*
X128450000Y-37157000D02*
X128450000Y-34217000D01*
X123790000Y-34217000D02*
X123790000Y-37157000D01*
X123010000Y-34217000D02*
X123010000Y-37157000D01*
X129470000Y-35687000D02*
X128450000Y-35687000D01*
X123010000Y-37157000D02*
X128450000Y-37157000D01*
X124030000Y-34217000D02*
X124030000Y-37157000D01*
X123910000Y-34217000D02*
X123910000Y-37157000D01*
%TO.C,U1*%
X156297000Y-35648000D02*
X166537000Y-35648000D01*
X159567000Y-35648000D02*
X159567000Y-37158000D01*
X163268000Y-35648000D02*
X163268000Y-37158000D01*
X156297000Y-35648000D02*
X156297000Y-40289000D01*
X156297000Y-40289000D02*
X166537000Y-40289000D01*
X166537000Y-35648000D02*
X166537000Y-40289000D01*
X156297000Y-37158000D02*
X166537000Y-37158000D01*
%TO.C,T1*%
X98001000Y-42004000D02*
X116101000Y-42004000D01*
X116101000Y-60104000D02*
X98001000Y-60104000D01*
X98001000Y-60104000D02*
X98001000Y-42004000D01*
X116101000Y-42004000D02*
X116101000Y-60104000D01*
%TD*%
M02*
