M48
; DRILL file {KiCad (6.0.4)} date Sun Jul 31 01:40:02 2022
; FORMAT={-:-/ absolute / inch / decimal}
; #@! TF.CreationDate,2022-07-31T01:40:02+05:30
; #@! TF.GenerationSoftware,Kicad,Pcbnew,(6.0.4)
; #@! TF.FileFunction,Plated,1,2,PTH
FMAT,2
INCH
; #@! TA.AperFunction,Plated,PTH,ComponentDrill
T1C0.0256
; #@! TA.AperFunction,Plated,PTH,ComponentDrill
T2C0.0319
; #@! TA.AperFunction,Plated,PTH,ComponentDrill
T3C0.0394
; #@! TA.AperFunction,Plated,PTH,ComponentDrill
T4C0.0433
%
G90
G05
T1
X3.47Y-1.975
X3.47Y-2.025
X7.105Y-1.93
X7.105Y-1.98
T2
X4.065Y-1.76
X4.065Y-2.26
X4.365Y-1.76
X4.365Y-2.26
T3
X5.555Y-1.985
X5.555Y-2.1228
X6.085Y-2.0072
X6.085Y-2.145
X6.68Y-2.02
X6.68Y-2.1578
T4
X4.735Y-1.815
X4.74Y-2.23
X4.74Y-2.565
X4.75Y-1.405
X5.135Y-1.815
X5.14Y-2.23
X5.14Y-2.565
X5.15Y-1.405
X6.255Y-1.5322
X6.355Y-1.5322
X6.455Y-1.5322
T0
M30
